<?xml version="1.0" standalone="no"?>
<!DOCTYPE svg PUBLIC "-//W3C//DTD SVG 20010904//EN"
 "http://www.w3.org/TR/2001/REC-SVG-20010904/DTD/svg10.dtd">
<svg version="1.0" xmlns="http://www.w3.org/2000/svg"
 width="601.000000pt" height="601.000000pt" viewBox="0 0 601.000000 601.000000"
 preserveAspectRatio="xMidYMid meet">
<metadata>
Created by potrace 1.14, written by Peter Selinger 2001-2017
</metadata>
<g transform="translate(0.000000,601.000000) scale(0.100000,-0.100000)"
fill="#000000" stroke="none">
<path d="M1467 4712 c-158 -158 -287 -292 -287 -297 0 -13 592 -605 605 -605
16 0 585 574 585 590 0 20 -581 600 -600 600 -9 0 -144 -129 -303 -288z"/>
<path d="M2444 4441 c-11 -12 -2 -50 14 -55 9 -3 388 -5 842 -5 454 0 840 -1
858 -1 21 0 32 -5 32 -14 0 -18 20 -26 40 -15 20 9 25 75 8 86 -13 8 -1786 12
-1794 4z"/>
<path d="M2405 4330 c-7 -3 -128 -117 -268 -253 -198 -193 -254 -253 -250
-268 5 -19 23 -19 862 -19 l856 0 254 254 c251 251 277 284 224 287 -81 4
-1667 3 -1678 -1z"/>
<path d="M3910 4015 l-285 -285 0 -867 c0 -574 3 -874 10 -887 6 -12 21 -22
34 -24 25 -4 51 20 196 183 44 49 89 99 100 110 11 12 56 62 100 111 44 49 87
96 95 104 8 8 31 34 52 57 l36 41 1 283 0 283 285 286 c189 190 282 290 278
300 -10 29 -580 590 -599 590 -11 0 -134 -116 -303 -285z"/>
<path d="M1765 3718 c-3 -7 -4 -409 -3 -893 l3 -880 890 0 890 0 0 890 0 890
-888 3 c-705 2 -889 0 -892 -10z"/>
<path d="M1360 1663 c-13 -3 -15 -37 -13 -246 1 -133 2 -247 2 -253 1 -7 10
-14 20 -17 37 -9 46 8 47 90 2 121 -4 112 62 111 l58 -1 64 -99 c35 -54 66
-98 69 -99 26 -3 71 -3 71 1 0 2 -28 47 -62 99 -35 52 -58 96 -53 98 85 28
114 72 111 171 -4 123 -38 145 -231 147 -71 0 -137 -1 -145 -2z m258 -62 c28
-3 52 -41 52 -85 0 -98 -17 -109 -165 -110 l-90 -1 0 90 c-1 50 0 95 2 100 3
8 138 12 201 6z"/>
<path d="M4107 1656 c-2 -6 -3 -102 -2 -213 2 -202 2 -202 29 -241 29 -43 72
-61 126 -55 43 4 50 11 43 45 -4 23 -8 25 -33 18 -20 -6 -36 -3 -58 10 -37 23
-41 46 -41 230 0 237 3 215 -30 216 -17 1 -32 -3 -34 -10z"/>
<path d="M2714 1535 c-54 -19 -76 -37 -90 -71 -18 -43 -20 -210 -3 -246 31
-68 146 -98 232 -60 66 29 79 60 79 188 0 90 -2 107 -22 133 -12 17 -31 36
-43 43 -32 18 -121 25 -153 13z m124 -73 c19 -15 24 -30 28 -90 9 -132 -20
-176 -109 -170 -61 4 -79 32 -82 128 -2 85 13 135 43 143 41 11 98 6 120 -11z"/>
<path d="M1910 1533 c-78 -25 -100 -69 -100 -195 0 -101 15 -141 63 -173 56
-36 177 -30 227 11 37 32 39 60 4 68 -20 5 -32 1 -51 -19 -20 -20 -36 -25 -73
-25 -68 0 -100 27 -100 84 l0 43 108 1 c59 0 116 0 128 1 19 1 20 6 18 61 -4
101 -55 151 -154 149 -30 0 -62 -3 -70 -6z m132 -71 c10 -10 20 -32 24 -50 6
-30 5 -32 -22 -33 -16 0 -59 -1 -97 -2 -66 -2 -67 -2 -67 25 0 14 3 34 6 43
16 41 120 52 156 17z"/>
<path d="M2285 1524 c-58 -30 -70 -58 -73 -175 -3 -93 -1 -109 18 -141 65
-111 310 -79 310 41 0 26 -61 22 -71 -5 -11 -32 -31 -41 -87 -42 -40 0 -60 5
-78 22 -23 19 -25 28 -26 115 -1 91 0 95 26 118 54 46 164 23 169 -35 1 -18 6
-21 27 -18 14 2 29 5 34 5 13 1 -2 62 -22 84 -9 10 -29 25 -44 33 -36 18 -145
17 -183 -2z"/>
<path d="M2960 1533 c0 -4 30 -91 67 -194 l67 -187 42 -4 42 -3 32 90 c17 50
47 132 66 183 43 117 43 124 2 120 -32 -3 -32 -3 -83 -155 -27 -83 -53 -155
-56 -158 -4 -3 -30 66 -58 154 l-52 161 -34 0 c-19 0 -35 -3 -35 -7z"/>
<path d="M3409 1520 c-52 -27 -70 -79 -68 -189 2 -109 17 -143 75 -172 36 -17
58 -20 109 -17 70 4 110 25 132 69 12 22 10 25 -18 32 -26 7 -34 4 -53 -18
-18 -21 -32 -26 -70 -27 -68 -1 -100 25 -104 85 l-3 46 98 -1 c54 0 113 0 132
1 l34 1 -6 60 c-6 69 -24 102 -70 130 -43 27 -138 26 -188 0z m158 -55 c20
-13 41 -70 30 -81 -3 -3 -46 -6 -96 -7 -99 -2 -101 -1 -85 60 12 45 98 61 151
28z"/>
<path d="M3740 1344 c0 -203 0 -205 47 -196 21 4 22 8 22 96 -1 172 0 174 24
197 29 28 66 41 94 34 22 -5 29 -20 37 -75 2 -20 9 -25 36 -27 l32 -1 -5 52
c-8 89 -33 116 -106 116 -33 0 -46 -6 -76 -37 l-35 -36 0 36 c0 35 -1 36 -35
35 l-35 -1 0 -193z"/>
<path d="M4314 1478 c13 -35 43 -119 66 -188 24 -69 50 -131 58 -137 13 -11
14 -16 2 -38 -16 -29 -40 -39 -95 -40 -36 0 -40 -3 -43 -27 -3 -29 -1 -31 58
-31 57 0 66 3 98 31 27 23 44 60 112 252 44 124 80 228 80 232 0 13 -58 9 -67
-4 -9 -15 -73 -206 -74 -222 0 -6 -8 -29 -18 -51 l-18 -40 -53 163 -53 162
-38 0 -38 0 23 -62z"/>
</g>
</svg>
